<svg width="72" height="43" viewBox="0 0 72 43" fill="none" xmlns="http://www.w3.org/2000/svg">
<path d="M7.35938 41.2031C5.57812 40.4844 4.21875 39.5469 3.28125 38.3906C2.34375 37.2031 1.70312 35.9844 1.35938 34.7344C1.01562 33.4531 0.90625 32.2188 1.03125 31.0312C1.15625 29.8438 1.39062 28.8906 1.73438 28.1719C2.07812 27.4219 2.46875 27.0156 2.90625 26.9531C3.375 26.8594 3.76562 27.2656 4.07812 28.1719C3.73438 30.1406 3.73438 31.8594 4.07812 33.3281C4.42188 34.7656 4.98438 35.9688 5.76562 36.9375C6.54688 37.875 7.5 38.5781 8.625 39.0469C9.75 39.4844 10.9062 39.7188 12.0938 39.75C13.2812 39.75 14.4375 39.5312 15.5625 39.0938C16.6875 38.6562 17.6562 38.0312 18.4688 37.2188C19.2812 36.375 19.875 35.3281 20.25 34.0781C20.625 32.8281 20.6562 31.4062 20.3438 29.8125C20.1875 29.0938 19.7656 28.2188 19.0781 27.1875C18.4219 26.125 17.6562 25 16.7812 23.8125C15.9375 22.625 15.0625 21.4219 14.1562 20.2031C13.25 18.9531 12.4844 17.7656 11.8594 16.6406C11.2656 15.4844 10.875 14.4375 10.6875 13.5C10.5312 12.5313 10.7656 11.7344 11.3906 11.1094C11.8906 10.7031 12.625 10.0938 13.5938 9.28125C14.5938 8.4375 15.6719 7.60938 16.8281 6.79688C17.9844 5.98437 19.1562 5.28125 20.3438 4.6875C21.5625 4.0625 22.6562 3.75 23.625 3.75C24.3438 3.75 24.7188 3.85938 24.75 4.07812C24.8125 4.29687 24.6562 4.59375 24.2812 4.96875C23.9062 5.3125 23.3594 5.73438 22.6406 6.23438C21.9531 6.73437 21.2031 7.28125 20.3906 7.875C19.5781 8.4375 18.75 9.04688 17.9062 9.70312C17.0938 10.3281 16.3906 10.9688 15.7969 11.625C15.2344 12.25 14.8125 12.875 14.5312 13.5C14.2812 14.0937 14.3125 14.6562 14.625 15.1875C15.75 16.7812 16.875 18.3906 18 20.0156C19.1562 21.6406 20.1562 23.25 21 24.8438C21.8438 26.4062 22.4688 27.9531 22.875 29.4844C23.3125 30.9844 23.375 32.4375 23.0625 33.8438C22.75 35.2188 21.9844 36.5312 20.7656 37.7812C19.5781 39.0312 17.8125 40.1719 15.4688 41.2031C14.0625 41.7969 12.7031 42.0781 11.3906 42.0469C10.1094 42.0156 8.76562 41.7344 7.35938 41.2031ZM63.8438 41.2031C62.7812 40.7969 61.875 40.1562 61.125 39.2812C60.4062 38.375 59.7812 37.3906 59.25 36.3281C58.75 35.2344 58.3438 34.1094 58.0312 32.9531C57.75 31.7969 57.5156 30.75 57.3281 29.8125C57.2344 29.3125 57.1094 28.5312 56.9531 27.4688C56.8281 26.375 56.6719 25.1719 56.4844 23.8594C56.3281 22.5156 56.1562 21.1094 55.9688 19.6406C55.8125 18.1406 55.6562 16.7344 55.5 15.4219L55.0781 11.8125C54.9531 10.75 54.875 9.96875 54.8438 9.46875L49.2188 32.25L48.9375 32.7656C48.8125 33.0469 48.625 33.3594 48.375 33.7031C48.1562 34.0156 47.9062 34.3281 47.625 34.6406C47.3438 34.9531 47.0469 35.1875 46.7344 35.3438C46.4531 35.4688 46.1719 35.5 45.8906 35.4375C45.6094 35.375 45.3594 35.1094 45.1406 34.6406L32.9062 10.2656L29.6719 34.6406C29.6094 35.0781 29.4375 35.3594 29.1562 35.4844C28.875 35.5781 28.5781 35.5781 28.2656 35.4844C27.9844 35.3594 27.7188 35.1562 27.4688 34.875C27.25 34.5938 27.1719 34.2656 27.2344 33.8906L31.3125 3.75C31.3125 3.625 31.4219 3.46875 31.6406 3.28125C31.8594 3.09375 32.1094 2.9375 32.3906 2.8125C32.6719 2.6875 32.9375 2.625 33.1875 2.625C33.4688 2.59375 33.6562 2.6875 33.75 2.90625L46.5469 31.3594L54.0469 2.90625C54.0781 2.8125 54.25 2.57812 54.5625 2.20312C54.875 1.79688 55.2188 1.42188 55.5938 1.07812C55.9688 0.734375 56.3281 0.484375 56.6719 0.328125C57.0156 0.140625 57.2344 0.203125 57.3281 0.515625L58.125 3.75C58.2188 5.875 58.2969 8.34375 58.3594 11.1562C58.4219 13.9688 58.5938 16.8594 58.875 19.8281C59.1562 22.7969 59.6094 25.7188 60.2344 28.5938C60.8594 31.4688 61.7969 34.0312 63.0469 36.2812C63.1406 36.4375 63.2969 36.6562 63.5156 36.9375C63.7344 37.1875 63.9688 37.4375 64.2188 37.6875C64.4688 37.9375 64.7188 38.1719 64.9688 38.3906C65.2188 38.5781 65.3906 38.6875 65.4844 38.7188C65.7969 38.8438 66.2188 38.8594 66.75 38.7656C67.2812 38.6719 67.8281 38.6094 68.3906 38.5781C68.9531 38.5156 69.4844 38.5469 69.9844 38.6719C70.5156 38.7656 70.9062 39.0625 71.1562 39.5625C71.4062 40.0625 71.4219 40.4688 71.2031 40.7812C71.0156 41.0625 70.6875 41.2812 70.2188 41.4375C69.75 41.5938 69.2031 41.6875 68.5781 41.7188C67.9531 41.75 67.3281 41.75 66.7031 41.7188C66.0781 41.6562 65.5 41.5781 64.9688 41.4844C64.4375 41.3906 64.0625 41.2969 63.8438 41.2031Z" fill="#FCFCFC"/>
</svg>
